<svg width="20" height="20" viewBox="0 0 20 20" fill="none" xmlns="http://www.w3.org/2000/svg">
<g id="home button ">
<rect id="Rectangle 15" x="0.5" y="0.5" width="19" height="19" rx="9.5" stroke="#388087"/>
<g id="Group">
<path id="Vector" d="M4.21878 10.0878C3.99079 8.62278 3.87679 7.89 4.20138 7.26389C4.52538 6.63778 5.21596 6.25667 6.59653 5.49556L7.42751 5.03722C8.68028 4.34556 9.30786 4 10.0002 4C10.6926 4 11.3196 4.34556 12.573 5.03722L13.404 5.49556C14.7839 6.25667 15.4745 6.63778 15.7991 7.26389C16.1231 7.89 16.0091 8.62278 15.7811 10.0878L15.6143 11.1639C15.3221 13.0461 15.1757 13.9867 14.4707 14.5489C13.7658 15.1111 12.732 15.1111 10.6638 15.1111H9.33666C7.26851 15.1111 6.23474 15.1111 5.52975 14.5489C4.82477 13.9867 4.67837 13.0461 4.38618 11.1639L4.21878 10.0878Z" stroke="#388087"/>
<path id="Vector_2" d="M11.8004 12.8889H8.20044" stroke="#388087" stroke-linecap="round"/>
</g>
</g>
</svg>
