<svg width="20" height="20" viewBox="0 0 20 20" fill="none" xmlns="http://www.w3.org/2000/svg">
<g id="profile button">
<rect id="Rectangle 16" x="0.5" y="0.5" width="19" height="19" rx="9.5" stroke="#388087"/>
<g id="Group">
<path id="Vector" d="M4 14.5C4 13.7044 4.31607 12.9413 4.87868 12.3787C5.44129 11.8161 6.20435 11.5 7 11.5H13C13.7956 11.5 14.5587 11.8161 15.1213 12.3787C15.6839 12.9413 16 13.7044 16 14.5C16 14.8978 15.842 15.2794 15.5607 15.5607C15.2794 15.842 14.8978 16 14.5 16H5.5C5.10218 16 4.72064 15.842 4.43934 15.5607C4.15804 15.2794 4 14.8978 4 14.5Z" stroke="#388087" stroke-linejoin="round"/>
<path id="Vector_2" d="M10 8.5C11.2426 8.5 12.25 7.49264 12.25 6.25C12.25 5.00736 11.2426 4 10 4C8.75736 4 7.75 5.00736 7.75 6.25C7.75 7.49264 8.75736 8.5 10 8.5Z" stroke="#388087"/>
</g>
</g>
</svg>
