<svg width="24" height="23" viewBox="0 0 24 23" fill="none" xmlns="http://www.w3.org/2000/svg">
<path d="M10.2042 1.54088L11.3934 0.371392C11.8969 -0.123798 12.7111 -0.123798 13.2092 0.371392L23.6224 10.6071C24.1259 11.1023 24.1259 11.903 23.6224 12.3929L13.2146 22.6286C12.7111 23.1238 11.8969 23.1238 11.3987 22.6286L10.2096 21.4591C9.7007 20.9587 9.71142 20.1421 10.231 19.6522L16.6803 13.6098L1.28557 13.6098C0.573152 13.6098 1.33708e-06 13.0462 1.36771e-06 12.3455L1.4414e-06 10.6598C1.47202e-06 9.95912 0.573152 9.39544 1.28557 9.39544L16.6803 9.39544L10.2256 3.3478C9.7007 2.85788 9.68999 2.04134 10.2042 1.54088Z" fill="#388087"/>
</svg>
